<svg xmlns="http://www.w3.org/2000/svg" version="1.1" xmlns:xlink="http://www.w3.org/1999/xlink" xmlns:svgjs="http://svgjs.dev/svgjs" width="1000" height="333" viewBox="0 0 1000 333"><g transform="matrix(1,0,0,1,-0.6060606060606233,-0.5703153943734947)"><svg viewBox="0 0 396 132" data-background-color="#ffffff" preserveAspectRatio="xMidYMid meet" height="333" width="1000" xmlns="http://www.w3.org/2000/svg" xmlns:xlink="http://www.w3.org/1999/xlink"><g id="tight-bounds" transform="matrix(1,0,0,1,0.2400000000000091,0.2260709671390373)"><svg viewBox="0 0 395.52 131.54785806572193" height="131.54785806572193" width="395.52"><g><svg viewBox="0 0 660.5701183049564 219.70212420418068" height="131.54785806572193" width="395.52"><g transform="matrix(1,0,0,1,0,28.913852975098422)"><svg viewBox="0 0 395.52 161.87441825398383" height="161.87441825398383" width="395.52"><g><svg viewBox="0 0 395.52 161.87441825398383" height="161.87441825398383" width="395.52"><g><svg viewBox="0 0 395.52 96.04532883642496" height="96.04532883642496" width="395.52"><g transform="matrix(1,0,0,1,0,0)"><svg width="395.52" viewBox="3.8499999046325684 -35.5 148.239990234375 36" height="96.04532883642496" data-palette-color="#113f67"><g class="undefined-text-0" data-fill-palette-color="primary" id="text-0"><path d="M25.3-7.05L26.65-6.4Q25.3-3.1 22.85-1.3 20.4 0.5 15.5 0.5L15.5 0.5Q9.35 0.5 6.6-3.28 3.85-7.05 3.85-15.05L3.85-15.05 3.85-19.95Q3.85-27.95 6.6-31.73 9.35-35.5 15.5-35.5L15.5-35.5Q20.4-35.5 22.85-33.7 25.3-31.9 26.65-28.6L26.65-28.6 25.3-27.95Q24.15-30.85 22.05-32.43 19.95-34 15.5-34L15.5-34Q13.05-34 11.3-33.38 9.55-32.75 8.15-31.25 6.75-29.75 6.05-26.93 5.35-24.1 5.35-19.95L5.35-19.95 5.35-15.05Q5.35-10.9 6.05-8.08 6.75-5.25 8.15-3.75 9.55-2.25 11.3-1.63 13.05-1 15.5-1L15.5-1Q19.95-1 22.05-2.58 24.15-4.15 25.3-7.05L25.3-7.05ZM55.3-35L55.3 0 53.8 0 53.8-17.5 35.8-17.5 35.8 0 34.3 0 34.3-35 35.8-35 35.8-19 53.8-19 53.8-35 55.3-35ZM66.09 0L66.09-1.5 84.5-1.5 73.9-30.65 62.75 0 61.15 0 73.9-35.05 86.65 0 66.09 0ZM88.29-35L113.29-35 113.29-33.5 101.54-33.5 101.54 0 100.04 0 100.04-33.5 88.29-33.5 88.29-35ZM120.49-35L120.49 0 118.99 0 118.99-35 120.49-35ZM150.74-7.05L152.09-6.4Q150.74-3.1 148.29-1.3 145.84 0.5 140.94 0.5L140.94 0.5Q134.79 0.5 132.04-3.28 129.29-7.05 129.29-15.05L129.29-15.05 129.29-19.95Q129.29-27.95 132.04-31.73 134.79-35.5 140.94-35.5L140.94-35.5Q145.84-35.5 148.29-33.7 150.74-31.9 152.09-28.6L152.09-28.6 150.74-27.95Q149.59-30.85 147.49-32.43 145.39-34 140.94-34L140.94-34Q138.49-34 136.74-33.38 134.99-32.75 133.59-31.25 132.19-29.75 131.49-26.93 130.79-24.1 130.79-19.95L130.79-19.95 130.79-15.05Q130.79-10.9 131.49-8.08 132.19-5.25 133.59-3.75 134.99-2.25 136.74-1.63 138.49-1 140.94-1L140.94-1Q145.39-1 147.49-2.58 149.59-4.15 150.74-7.05L150.74-7.05Z" fill="#113f67" data-fill-palette-color="primary"></path></g></svg></g></svg></g><g transform="matrix(1,0,0,1,163.310208,118.71932588681281)"><svg viewBox="0 0 232.209792 43.15509236717103" height="43.15509236717103" width="232.209792"><g transform="matrix(1,0,0,1,0,0)"><svg width="232.209792" viewBox="0.49000000953674316 -37.55158996582031 283.2051696777344 52.6415901184082" height="43.15509236717103" data-palette-color="#97ddb5"><path d="M19.58-18.75L19.58-18.75Q19.58-18.51 19.53-18.24 19.48-17.97 19.38-17.72L19.38-17.72Q18.95-16.6 18.02-15.84 17.09-15.09 15.82-15.09L15.82-15.09Q13.92-15.09 13.23-16.99L13.23-16.99Q13.13-17.24 13.13-17.55 13.13-17.87 13.09-18.21L13.09-18.21 13.09-19.63Q12.99-20.31 12.74-20.7 12.5-21.09 11.91-21.09L11.91-21.09Q11.08-21.09 10.33-20.04 9.57-18.99 9.01-17.55 8.45-16.11 8.11-14.6 7.76-13.09 7.76-12.16L7.76-12.16Q7.76-11.43 7.86-10.38 7.96-9.33 8.25-8.35 8.54-7.37 9.06-6.67 9.57-5.96 10.4-5.96L10.4-5.96Q11.23-5.96 11.94-6.47 12.65-6.98 13.33-7.67L13.33-7.67Q13.96-8.25 14.72-8.89 15.48-9.52 16.46-9.52L16.46-9.52Q17.68-9.52 18.38-8.64 19.09-7.76 19.09-6.64L19.09-6.64Q19.09-4.98 18.21-3.54 17.33-2.1 16.02-1.05 14.7 0 13.09 0.61 11.47 1.22 10.01 1.22L10.01 1.22Q7.37 1.22 5.54-0.1 3.71-1.42 2.59-3.44 1.46-5.47 0.98-7.86 0.49-10.25 0.49-12.4L0.49-12.4Q0.49-14.89 1.17-17.8 1.86-20.7 3.27-23.19 4.69-25.68 6.91-27.34 9.13-29 12.21-29L12.21-29Q14.11-29 15.5-28.17 16.89-27.34 17.8-26 18.7-24.66 19.17-23 19.63-21.34 19.63-19.73L19.63-19.73Q19.63-19.48 19.63-19.24 19.63-18.99 19.58-18.75ZM44.48-12.65L44.48-12.65Q44.48-11.82 44.46-10.18 44.43-8.54 44.31-6.76 44.19-4.98 43.99-3.39 43.8-1.81 43.5-1.07L43.5-1.07Q43.11-0.15 42.48 0.54 41.84 1.22 40.77 1.22L40.77 1.22Q39.11 1.22 38.38-0.1 37.64-1.42 37.4-3.37 37.16-5.32 37.2-7.62 37.25-9.91 37.16-11.87 37.06-13.82 36.62-15.14 36.18-16.46 35.01-16.46L35.01-16.46Q33.4-16.46 32.54-15.94 31.69-15.43 31.32-14.6 30.95-13.77 30.88-12.7 30.81-11.62 30.71-10.45L30.71-10.45Q30.61-9.33 30.56-7.42 30.52-5.52 30.12-3.66 29.73-1.81 28.83-0.46 27.93 0.88 26.17 0.88L26.17 0.88Q25.1 0.88 24.44 0.05 23.78-0.78 23.39-2.1 23-3.42 22.82-5.03 22.65-6.64 22.63-8.18 22.6-9.72 22.63-10.99 22.65-12.26 22.65-12.89L22.65-12.89Q22.65-13.87 22.73-16.11 22.8-18.36 23.04-21.12 23.29-23.88 23.68-26.81 24.07-29.74 24.7-32.15 25.34-34.57 26.24-36.08 27.15-37.6 28.37-37.55L28.37-37.55Q29.15-37.5 29.71-36.87 30.27-36.23 30.64-35.23 31-34.23 31.25-33.06 31.49-31.88 31.61-30.74 31.74-29.59 31.76-28.61 31.78-27.64 31.78-27.1L31.78-27.1Q31.78-25.83 31.74-24.56 31.69-23.29 31.59-22.02L31.59-22.02Q32.71-23.54 34.59-24.51 36.47-25.49 38.38-25.49L38.38-25.49Q40.82-25.49 42.06-24.15 43.31-22.8 43.85-20.83 44.38-18.85 44.43-16.63 44.48-14.4 44.48-12.65ZM68.7-6.88L68.7-6.88Q68.7-6.01 68.62-4.59 68.55-3.17 68.21-1.83 67.87-0.49 67.13 0.49 66.4 1.46 65.08 1.46L65.08 1.46Q63.28 1.46 62.3 0.29 61.32-0.88 61.37-2.64L61.37-2.64Q59.81-1.27 57.83-0.49 55.85 0.29 53.8 0.29L53.8 0.29Q52.39 0.29 51.12-0.39 49.85-1.07 48.87-2.15 47.9-3.22 47.31-4.57 46.72-5.91 46.72-7.23L46.72-7.23Q46.72-9.57 48.16-11.33 49.6-13.09 51.7-14.33 53.8-15.58 56.17-16.31 58.54-17.04 60.4-17.29L60.4-17.29Q60.4-17.53 60.42-17.72 60.44-17.92 60.44-18.16L60.44-18.16Q60.44-19.68 59.61-20.61 58.78-21.53 57.27-21.53L57.27-21.53Q56.05-21.53 55.17-21.12 54.29-20.7 53.51-20.19 52.73-19.68 51.95-19.26 51.17-18.85 50.19-18.85L50.19-18.85Q49.12-18.85 48.36-19.53 47.6-20.21 47.6-21.29L47.6-21.29Q47.6-22.9 48.55-24.22 49.51-25.54 50.95-26.44 52.39-27.34 54.07-27.86 55.76-28.37 57.17-28.37L57.17-28.37Q58.49-28.37 59.81-28.05 61.13-27.73 62.3-27.08 63.47-26.42 64.42-25.46 65.38-24.51 65.96-23.24L65.96-23.24Q66.84-21.44 67.38-19.41 67.91-17.38 68.21-15.26 68.5-13.13 68.6-11.01 68.7-8.89 68.7-6.88ZM60.88-8.45L60.88-8.45 60.74-11.77Q60.64-11.77 60.54-11.79 60.44-11.82 60.35-11.82L60.35-11.82Q59.71-11.82 58.76-11.5 57.81-11.18 56.93-10.62 56.05-10.06 55.44-9.38 54.83-8.69 54.83-7.96L54.83-7.96Q54.83-7.28 55.32-7.03 55.81-6.79 56.44-6.79L56.44-6.79Q57.51-6.79 58.74-7.35 59.96-7.91 60.88-8.45ZM83 1.76L83 1.76Q79.53 1.76 77.6 0.85 75.68-0.05 74.72-1.71 73.77-3.37 73.58-5.71 73.38-8.06 73.38-10.94L73.38-10.94Q73.38-13.23 73.53-15.55 73.67-17.87 73.97-20.51L73.97-20.51Q73.28-20.51 72.89-20.48 72.5-20.46 72.26-20.46L72.26-20.46Q70.7-20.46 69.55-21.14 68.4-21.83 68.4-23.24L68.4-23.24Q68.4-24.12 69.06-24.8 69.72-25.49 70.74-25.98 71.77-26.46 72.97-26.76 74.16-27.05 75.24-27.15L75.24-27.15Q75.24-28.52 75.43-30.18 75.63-31.84 76.14-33.28 76.65-34.72 77.53-35.69 78.41-36.67 79.78-36.67L79.78-36.67Q80.56-36.67 81.17-36.21 81.78-35.74 82.17-35.03 82.56-34.33 82.76-33.45 82.95-32.57 82.95-31.74L82.95-31.74Q82.95-30.76 82.81-29.74 82.66-28.71 82.27-27.2L82.27-27.2Q83.1-27.29 83.39-27.32 83.68-27.34 83.93-27.34L83.93-27.34Q84.76-27.34 85.66-27.2 86.56-27.05 87.32-26.71 88.08-26.37 88.57-25.81 89.06-25.24 89.06-24.46L89.06-24.46Q89.06-23.58 88.35-22.9 87.64-22.22 86.56-21.73 85.49-21.24 84.27-20.97 83.05-20.7 81.97-20.61L81.97-20.61Q81.68-18.6 81.56-16.92 81.44-15.23 81.29-13.53L81.29-13.53Q81.19-12.7 81.12-11.84 81.05-10.99 81.05-10.11L81.05-10.11Q81.05-9.47 81.1-8.62 81.14-7.76 81.44-6.98 81.73-6.2 82.37-5.64 83-5.08 84.12-5.08L84.12-5.08Q84.81-5.08 85.54-5.2 86.27-5.32 87-5.32L87-5.32Q88.27-5.32 88.84-4.44 89.4-3.56 89.4-2.2L89.4-2.2Q89.4-1.17 88.79-0.42 88.18 0.34 87.25 0.81 86.32 1.27 85.17 1.51 84.03 1.76 83 1.76ZM122.89-6.88L122.89-6.88Q122.89-6.01 122.81-4.59 122.74-3.17 122.4-1.83 122.06-0.49 121.33 0.49 120.59 1.46 119.27 1.46L119.27 1.46Q117.47 1.46 116.49 0.29 115.51-0.88 115.56-2.64L115.56-2.64Q114-1.27 112.02-0.49 110.05 0.29 108 0.29L108 0.29Q106.58 0.29 105.31-0.39 104.04-1.07 103.06-2.15 102.09-3.22 101.5-4.57 100.92-5.91 100.92-7.23L100.92-7.23Q100.92-9.57 102.36-11.33 103.8-13.09 105.9-14.33 108-15.58 110.36-16.31 112.73-17.04 114.59-17.29L114.59-17.29Q114.59-17.53 114.61-17.72 114.64-17.92 114.64-18.16L114.64-18.16Q114.64-19.68 113.81-20.61 112.98-21.53 111.46-21.53L111.46-21.53Q110.24-21.53 109.36-21.12 108.48-20.7 107.7-20.19 106.92-19.68 106.14-19.26 105.36-18.85 104.38-18.85L104.38-18.85Q103.31-18.85 102.55-19.53 101.79-20.21 101.79-21.29L101.79-21.29Q101.79-22.9 102.75-24.22 103.7-25.54 105.14-26.44 106.58-27.34 108.26-27.86 109.95-28.37 111.36-28.37L111.36-28.37Q112.68-28.37 114-28.05 115.32-27.73 116.49-27.08 117.66-26.42 118.62-25.46 119.57-24.51 120.15-23.24L120.15-23.24Q121.03-21.44 121.57-19.41 122.11-17.38 122.4-15.26 122.69-13.13 122.79-11.01 122.89-8.89 122.89-6.88ZM115.08-8.45L115.08-8.45 114.93-11.77Q114.83-11.77 114.73-11.79 114.64-11.82 114.54-11.82L114.54-11.82Q113.9-11.82 112.95-11.5 112-11.18 111.12-10.62 110.24-10.06 109.63-9.38 109.02-8.69 109.02-7.96L109.02-7.96Q109.02-7.28 109.51-7.03 110-6.79 110.63-6.79L110.63-6.79Q111.71-6.79 112.93-7.35 114.15-7.91 115.08-8.45ZM140.12-26.86L140.12-26.86Q140.12-25.44 139.17-24.76 138.22-24.07 137.05-23.46 135.87-22.85 134.92-22.02 133.97-21.19 133.97-19.53L133.97-19.53Q133.97-18.65 134.38-18.02 134.8-17.38 135.41-16.87 136.02-16.36 136.75-15.82 137.49-15.28 138.1-14.6 138.71-13.92 139.12-12.94 139.54-11.96 139.54-10.55L139.54-10.55Q139.54-8.5 138.49-6.52 137.44-4.54 135.8-3 134.16-1.46 132.11-0.54 130.06 0.39 128.06 0.39L128.06 0.39Q127.23 0.39 126.4 0.27 125.57 0.15 124.91-0.2 124.25-0.54 123.81-1.15 123.37-1.76 123.37-2.73L123.37-2.73Q123.37-4.1 123.91-4.86 124.45-5.62 125.28-6.05 126.11-6.49 127.06-6.74 128.01-6.98 128.84-7.35 129.67-7.71 130.21-8.3 130.75-8.89 130.75-9.96L130.75-9.96Q130.75-10.99 129.94-12.08 129.14-13.18 128.16-14.43 127.18-15.67 126.38-17.09 125.57-18.51 125.57-20.21L125.57-20.21Q125.57-22.31 126.43-24.1 127.28-25.88 128.72-27.2 130.16-28.52 132.02-29.27 133.87-30.03 135.92-30.03L135.92-30.03Q136.7-30.03 137.46-29.88 138.22-29.74 138.8-29.37 139.39-29 139.76-28.39 140.12-27.78 140.12-26.86ZM164.43 14.21L164.43 14.21Q163.26 14.21 161.77 13.84 160.28 13.48 158.96 12.79 157.65 12.11 156.74 11.13 155.84 10.16 155.84 8.89L155.84 8.89Q155.84 8.4 156.08 7.91 156.33 7.42 156.74 7.06 157.16 6.69 157.65 6.47 158.13 6.25 158.67 6.25L158.67 6.25Q159.26 6.25 159.82 6.42 160.38 6.59 160.97 6.84L160.97 6.84Q161.6 7.08 162.21 7.28 162.82 7.47 163.51 7.47L163.51 7.47Q164.73 7.47 165.63 6.64 166.53 5.81 167.17 4.47 167.8 3.13 168.19 1.49 168.58-0.15 168.8-1.76 169.02-3.37 169.12-4.79 169.22-6.2 169.27-7.08L169.27-7.08Q167.56-4.49 165.87-3.1 164.19-1.71 161.75-1.71L161.75-1.71Q159.89-1.71 158.5-2.49 157.11-3.27 156.13-4.54 155.16-5.81 154.52-7.45 153.89-9.08 153.57-10.84 153.25-12.6 153.15-14.28 153.06-15.97 153.15-17.38L153.15-17.38Q153.2-18.46 153.42-20.19 153.64-21.92 154.13-23.58 154.62-25.24 155.5-26.39 156.38-27.54 157.79-27.44L157.79-27.44Q158.72-27.39 159.31-26.64 159.89-25.88 160.26-24.76 160.62-23.63 160.8-22.29 160.97-20.95 161.02-19.63 161.06-18.31 161.04-17.21 161.02-16.11 161.02-15.53L161.02-15.53Q161.02-14.7 161.06-13.87 161.11-13.04 161.41-12.38 161.7-11.72 162.31-11.33 162.92-10.94 164.04-10.94L164.04-10.94Q165.31-10.94 166.07-11.57 166.83-12.21 167.19-13.16 167.56-14.11 167.66-15.21 167.75-16.31 167.75-17.29L167.75-17.29Q167.75-17.97 167.75-18.95 167.75-19.92 167.78-21 167.8-22.07 167.97-23.12 168.14-24.17 168.51-25.02 168.88-25.88 169.49-26.42 170.1-26.95 171.07-26.95L171.07-26.95Q172.29-26.95 173.17-26 174.05-25.05 174.66-23.51 175.27-21.97 175.64-20.12 176.01-18.26 176.2-16.43 176.4-14.6 176.47-13.06 176.54-11.52 176.54-10.64L176.54-10.64Q176.54-8.59 176.4-5.98 176.25-3.37 175.83-0.61 175.42 2.15 174.59 4.81 173.76 7.47 172.42 9.57 171.07 11.67 169.12 12.94 167.17 14.21 164.43 14.21ZM188.99 1.42L188.99 1.42Q186.5 1.42 184.65 0.1 182.79-1.22 181.52-3.27 180.25-5.32 179.62-7.84 178.98-10.35 178.98-12.79L178.98-12.79Q178.98-15.38 179.62-18.14 180.25-20.9 181.57-23.17 182.89-25.44 184.94-26.88 186.99-28.32 189.82-28.32L189.82-28.32Q192.56-28.32 194.48-26.83 196.41-25.34 197.58-23.12 198.76-20.9 199.25-18.26 199.73-15.63 199.59-13.28L199.59-13.28Q199.44-10.69 198.78-8.06 198.12-5.42 196.85-3.32 195.58-1.22 193.63 0.1 191.68 1.42 188.99 1.42ZM189.48-20.65L189.48-20.65Q188.75-20.65 188.19-19.87 187.62-19.09 187.26-17.97 186.89-16.85 186.7-15.6 186.5-14.36 186.5-13.43L186.5-13.43Q186.5-12.26 186.72-10.89 186.94-9.52 187.33-8.37 187.72-7.23 188.28-6.47 188.84-5.71 189.58-5.71L189.58-5.71Q190.36-5.71 190.92-6.45 191.48-7.18 191.82-8.3 192.17-9.42 192.31-10.77 192.46-12.11 192.46-13.28L192.46-13.28Q192.46-14.36 192.26-15.65 192.07-16.94 191.7-18.07 191.33-19.19 190.77-19.92 190.21-20.65 189.48-20.65ZM223.46-13.96L223.46-13.96Q223.46-11.28 222.92-8.64 222.39-6.01 221.12-3.93 219.85-1.86 217.72-0.59 215.6 0.68 212.43 0.68L212.43 0.68Q209.3 0.68 207.2-0.56 205.1-1.81 203.86-3.86 202.61-5.91 202.1-8.5 201.59-11.08 201.59-13.77L201.59-13.77Q201.59-16.7 202.27-19.58L202.27-19.58Q202.42-20.36 202.83-21.75 203.25-23.14 203.91-24.49 204.56-25.83 205.42-26.81 206.27-27.78 207.3-27.78L207.3-27.78Q208.28-27.78 208.86-27.25 209.45-26.71 209.79-25.9 210.13-25.1 210.23-24.19 210.33-23.29 210.33-22.56L210.33-22.56Q210.33-21.44 210.16-20.36 209.98-19.29 209.79-18.21L209.79-18.21Q209.59-16.75 209.42-15.28 209.25-13.82 209.25-12.35L209.25-12.35Q209.25-11.62 209.33-10.72 209.4-9.81 209.69-8.98 209.98-8.15 210.52-7.59 211.06-7.03 212.04-7.03L212.04-7.03Q213.31-7.03 214.06-7.71 214.82-8.4 215.18-9.42 215.55-10.45 215.65-11.62 215.75-12.79 215.75-13.77L215.75-13.77Q215.75-15.92 215.45-17.99 215.16-20.07 214.92-22.22L214.92-22.22Q214.87-22.46 214.87-22.9L214.87-22.9Q214.87-23.63 215.11-24.37 215.36-25.1 215.8-25.68 216.23-26.27 216.87-26.64 217.5-27 218.29-27L218.29-27Q219.36-27 220.19-26.25 221.02-25.49 221.58-24.29 222.14-23.1 222.51-21.61 222.88-20.12 223.1-18.68 223.31-17.24 223.39-15.97 223.46-14.7 223.46-13.96ZM260.32-16.65L260.32-16.65Q260.32-14.16 260.25-11.67 260.18-9.18 259.98-6.69L259.98-6.69Q259.83-4.54 259.59-2.1 259.35 0.34 258.81 2.76 258.27 5.18 257.39 7.4 256.51 9.62 255.07 11.33 253.63 13.04 251.58 14.06 249.53 15.09 246.7 15.09L246.7 15.09Q245.38 15.09 243.74 14.67 242.11 14.26 240.67 13.48 239.23 12.7 238.23 11.55 237.23 10.4 237.23 8.89L237.23 8.89Q237.23 7.76 238.03 6.81 238.84 5.86 240.11 5.86L240.11 5.86Q240.89 5.86 241.6 6.13 242.3 6.4 243.01 6.74 243.72 7.08 244.38 7.35 245.04 7.62 245.72 7.62L245.72 7.62Q247.53 7.62 248.75 6.71 249.97 5.81 250.7 4.42 251.43 3.03 251.8 1.39 252.17-0.24 252.31-1.71L252.31-1.71Q251.34-0.59 250.04-0.17 248.75 0.24 247.33 0.24L247.33 0.24Q244.75 0.24 242.94-0.66 241.13-1.56 240.01-3.15 238.89-4.74 238.35-6.84 237.81-8.94 237.81-11.38L237.81-11.38Q237.81-12.89 238.13-14.79 238.45-16.7 239.08-18.65 239.72-20.61 240.67-22.46 241.62-24.32 242.89-25.73 244.16-27.15 245.75-28.03 247.33-28.91 249.24-28.91L249.24-28.91Q251.09-28.91 252.53-27.83 253.97-26.76 254.22-24.8L254.22-24.8Q254.76-25.83 255.63-26.83 256.51-27.83 257.78-27.83L257.78-27.83Q258.47-27.83 258.93-27.15 259.39-26.46 259.66-25.37 259.93-24.27 260.08-22.97 260.22-21.68 260.27-20.43 260.32-19.19 260.32-18.16 260.32-17.14 260.32-16.65ZM252.9-13.48L252.9-13.48Q252.9-14.21 252.68-15.38 252.46-16.55 252.05-17.63 251.63-18.7 251-19.48 250.36-20.26 249.48-20.26L249.48-20.26Q248.36-20.26 247.5-19.48 246.65-18.7 246.06-17.6 245.48-16.5 245.16-15.26 244.84-14.01 244.84-13.13L244.84-13.13Q244.84-12.5 244.94-11.43 245.04-10.35 245.36-9.33 245.67-8.3 246.21-7.57 246.75-6.84 247.63-6.84L247.63-6.84Q248.94-6.84 249.92-7.47 250.9-8.11 251.56-9.08 252.22-10.06 252.56-11.23 252.9-12.4 252.9-13.48ZM273.06 1.42L273.06 1.42Q270.57 1.42 268.72 0.1 266.86-1.22 265.59-3.27 264.32-5.32 263.69-7.84 263.05-10.35 263.05-12.79L263.05-12.79Q263.05-15.38 263.69-18.14 264.32-20.9 265.64-23.17 266.96-25.44 269.01-26.88 271.06-28.32 273.89-28.32L273.89-28.32Q276.63-28.32 278.56-26.83 280.49-25.34 281.66-23.12 282.83-20.9 283.32-18.26 283.81-15.63 283.66-13.28L283.66-13.28Q283.51-10.69 282.85-8.06 282.19-5.42 280.92-3.32 279.66-1.22 277.7 0.1 275.75 1.42 273.06 1.42ZM273.55-20.65L273.55-20.65Q272.82-20.65 272.26-19.87 271.7-19.09 271.33-17.97 270.96-16.85 270.77-15.6 270.57-14.36 270.57-13.43L270.57-13.43Q270.57-12.26 270.79-10.89 271.01-9.52 271.4-8.37 271.79-7.23 272.36-6.47 272.92-5.71 273.65-5.71L273.65-5.71Q274.43-5.71 274.99-6.45 275.55-7.18 275.9-8.3 276.24-9.42 276.38-10.77 276.53-12.11 276.53-13.28L276.53-13.28Q276.53-14.36 276.33-15.65 276.14-16.94 275.77-18.07 275.41-19.19 274.85-19.92 274.28-20.65 273.55-20.65Z" opacity="1" transform="matrix(1,0,0,1,0,0)" fill="#97ddb5" class="undefined-text-1" data-fill-palette-color="secondary" id="text-1"></path></svg></g></svg></g></svg></g></svg></g><g transform="matrix(1,0,0,1,440.8679941007757,0)"><svg viewBox="0 0 219.70212420418068 219.70212420418068" height="219.70212420418068" width="219.70212420418068"><g><svg></svg></g><g id="icon-0"><svg viewBox="0 0 219.70212420418068 219.70212420418068" height="219.70212420418068" width="219.70212420418068"><g><path d="M0 109.851c0-60.669 49.182-109.851 109.851-109.851 60.669 0 109.851 49.182 109.851 109.851 0 60.669-49.182 109.851-109.851 109.851-60.669 0-109.851-49.182-109.851-109.851zM109.851 211.041c55.885 0 101.19-45.304 101.19-101.19 0-55.885-45.304-101.19-101.19-101.19-55.885 0-101.19 45.304-101.19 101.19 0 55.885 45.304 101.19 101.19 101.19z" data-fill-palette-color="accent" fill="#87c0cd" stroke="transparent"></path></g><g transform="matrix(1,0,0,1,53.28235422945986,53.282349913609956)"><svg viewBox="0 0 113.13741574526095 113.13742437696077" height="113.13742437696077" width="113.13741574526095"><g><svg xmlns="http://www.w3.org/2000/svg" xmlns:xlink="http://www.w3.org/1999/xlink" version="1.1" x="0" y="0" viewBox="0 -0.0000057220458984375 100 100.00000762939453" style="enable-background:new 0 0 100 100;" xml:space="preserve" width="113.13741574526095" height="113.13742437696077" class="icon-a-0" data-fill-palette-color="accent" id="a-0"><g fill="#87c0cd" data-fill-palette-color="accent"><path d="M74.988 37.5c0 13.807-11.182 25-24.988 25C50 55.604 44.396 50 37.5 50H24.988C12.5 50 0 42.969 0 25 0 6.641 12.5 0 24.988 0H50c12.5 0 24.988 7.745 24.988 25V37.5z" fill="#87c0cd" data-fill-palette-color="accent"></path></g><path d="M37.5 37.5" fill="#87c0cd" data-fill-palette-color="accent"></path><path d="M37.5 37.5" fill="#87c0cd" data-fill-palette-color="accent"></path><g fill="#87c0cd" data-fill-palette-color="accent"><g fill="#87c0cd" data-fill-palette-color="accent"><path d="M81.189 38.165C80.822 55.078 66.992 68.75 50 68.75h-6.25V62.5c0-3.448-2.808-6.25-6.25-6.25H25.623c-0.391 1.935-0.635 4.004-0.635 6.25V75c0 13.807 11.205 25 25.012 25 0-6.909 5.604-12.5 12.5-12.5h12.488C87.5 87.5 100 80.469 100 62.5 100 47.211 91.297 40.125 81.189 38.165z" fill="#87c0cd" data-fill-palette-color="accent"></path></g></g></svg></g></svg></g></svg></g></svg></g></svg></g><defs></defs></svg><rect width="395.52" height="131.54785806572193" fill="none" stroke="none" visibility="hidden"></rect></g></svg></g></svg>